<svg width="70" height="68" viewBox="0 0 70 68" fill="none" xmlns="http://www.w3.org/2000/svg">
<g id="Linkedin-icon">
<path id="Star 1" d="M36.7121 1.53351L63.023 16.2901C64.1272 16.9094 64.8109 18.0767 64.8109 19.3427V48.6572C64.8109 49.9233 64.1272 51.0906 63.023 51.7099L36.7121 66.4665C35.6486 67.0629 34.3514 67.063 33.2879 66.4665L6.97701 51.7099C5.8728 51.0906 5.18911 49.9233 5.18911 48.6573V19.3428C5.18911 18.0767 5.8728 16.9094 6.97701 16.2901L33.2879 1.53351C34.3514 0.937054 35.6486 0.937053 36.7121 1.53351Z" fill="white" fill-opacity="0.5" stroke="#696969"/>
<g id="Linkedin">
<path id="Vector" d="M24 24.5758C24 23.7054 24.7232 23 25.6156 23H44.3844C45.2767 23 46 23.7054 46 24.5758V43.4243C46 44.2946 45.2767 45 44.3844 45H25.6156C24.7232 45 24 44.2946 24 43.4243V24.5758ZM30.7966 41.4168V31.4824H27.4953V41.4168H30.7966ZM29.1466 30.1253C30.2975 30.1253 31.0139 29.3635 31.0139 28.4093C30.9932 27.4344 30.2989 26.6933 29.1686 26.6933C28.0384 26.6933 27.3 27.4358 27.3 28.4093C27.3 29.3635 28.0164 30.1253 29.1246 30.1253H29.1466V30.1253ZM35.8951 41.4168V35.8686C35.8951 35.5716 35.9171 35.2746 36.0051 35.0629C36.243 34.4702 36.7861 33.8556 37.6991 33.8556C38.894 33.8556 39.3711 34.7659 39.3711 36.1024V41.4168H42.6725V35.7188C42.6725 32.6662 41.0445 31.2473 38.872 31.2473C37.1202 31.2473 36.3351 32.2097 35.8951 32.8876V32.922H35.8731C35.8804 32.9105 35.8878 32.8991 35.8951 32.8876V31.4824H32.5951C32.6364 32.4146 32.5951 41.4168 32.5951 41.4168H35.8951Z" fill="#696969"/>
</g>
</g>
</svg>
