<svg width="70" height="68" viewBox="0 0 70 68" fill="none" xmlns="http://www.w3.org/2000/svg">
<g id="Twitter-icon">
<path id="Star 1" d="M33.2879 1.53351C34.3514 0.937054 35.6486 0.937053 36.7121 1.53351L63.023 16.2901C64.1272 16.9094 64.8109 18.0767 64.8109 19.3427V48.6572C64.8109 49.9233 64.1272 51.0906 63.023 51.7099L36.7121 66.4665C35.6486 67.063 34.3514 67.063 33.2879 66.4665L6.97701 51.7099C5.8728 51.0906 5.18911 49.9233 5.18911 48.6573V19.3428C5.18911 18.0767 5.8728 16.9094 6.97701 16.2901L33.2879 1.53351Z" fill="white" fill-opacity="0.5" stroke="#696969"/>
<g id="Twitter">
<path id="Vector" d="M30.539 44.4999C39.596 44.4999 44.5505 36.9954 44.5505 30.4989C44.5505 30.2889 44.5505 30.0759 44.5415 29.8659C45.5061 29.1677 46.3386 28.3032 47 27.3129C46.099 27.7102 45.1441 27.972 44.1665 28.0899C45.1963 27.4744 45.9676 26.5059 46.337 25.3644C45.3695 25.9376 44.3105 26.34 43.2065 26.5539C42.4643 25.7635 41.4821 25.2398 40.4121 25.0641C39.3422 24.8883 38.2441 25.0703 37.288 25.5818C36.3319 26.0934 35.5712 26.9059 35.1237 27.8935C34.6761 28.8812 34.5668 29.9888 34.8125 31.0449C32.8546 30.9468 30.9392 30.4381 29.1906 29.5521C27.4419 28.666 25.899 27.4222 24.662 25.9014C24.034 26.9861 23.8424 28.269 24.126 29.4898C24.4096 30.7106 25.1472 31.7777 26.189 32.4744C25.4083 32.4479 24.6448 32.2383 23.96 31.8624V31.9299C23.9613 33.0662 24.355 34.1671 25.0743 35.0466C25.7937 35.9261 26.7946 36.5303 27.908 36.7569C27.4854 36.8734 27.0488 36.9314 26.6105 36.9294C26.3015 36.9304 25.9931 36.9017 25.6895 36.8439C26.0042 37.822 26.6169 38.6772 27.4419 39.2897C28.2668 39.9021 29.2627 40.2412 30.29 40.2594C28.5448 41.6301 26.3891 42.3736 24.17 42.3699C23.779 42.3716 23.3882 42.349 23 42.3024C25.2523 43.7383 27.8679 44.5008 30.539 44.4999V44.4999Z" fill="#696969"/>
</g>
</g>
</svg>
