<svg width="70" height="68" viewBox="0 0 70 68" fill="none" xmlns="http://www.w3.org/2000/svg">
<g id="Youtube-icon">
<path id="Star 1" d="M36.7121 1.53351L63.023 16.2901C64.1272 16.9094 64.8109 18.0767 64.8109 19.3427V48.6572C64.8109 49.9233 64.1272 51.0906 63.023 51.7099L36.7121 66.4665C35.6486 67.0629 34.3514 67.063 33.2879 66.4665L6.97701 51.7099C5.8728 51.0906 5.18911 49.9233 5.18911 48.6573V19.3428C5.18911 18.0767 5.8728 16.9094 6.97701 16.2901L33.2879 1.53351C34.3514 0.937054 35.6486 0.937053 36.7121 1.53351Z" fill="white" fill-opacity="0.5" stroke="#696969"/>
<g id="Youtube">
<path id="Vector" d="M35.0893 25.1251H35.245C36.6835 25.1299 43.9723 25.1774 45.9375 25.6559C46.5316 25.802 47.073 26.0866 47.5075 26.4815C47.9421 26.8763 48.2546 27.3675 48.4138 27.9059C48.5905 28.508 48.7148 29.3051 48.7988 30.1274L48.8163 30.2922L48.8548 30.7042L48.8688 30.869C48.9825 32.3172 48.9965 33.6735 48.9983 33.9698V34.0887C48.9965 34.3961 48.9808 35.8443 48.8548 37.3528L48.8408 37.5191L48.825 37.6839C48.7375 38.5903 48.608 39.4903 48.4138 40.1526C48.255 40.6912 47.9427 41.1827 47.5081 41.5776C47.0735 41.9725 46.5319 42.257 45.9375 42.4026C43.9075 42.897 36.1918 42.9318 35.1225 42.9334H34.874C34.3333 42.9334 32.0968 42.9239 29.7518 42.851L29.4543 42.8415L29.302 42.8352L29.0028 42.8241L28.7035 42.813C26.761 42.7353 24.9113 42.6102 24.059 42.401C23.4649 42.2555 22.9234 41.9713 22.4888 41.5766C22.0542 41.182 21.7417 40.691 21.5828 40.1526C21.3885 39.4918 21.259 38.5903 21.1715 37.6839L21.1575 37.5176L21.1435 37.3528C21.0571 36.2791 21.0093 35.2032 21 34.1267L21 33.9318C21.0035 33.5911 21.0175 32.4139 21.112 31.1146L21.1243 30.9514L21.1295 30.869L21.1435 30.7042L21.182 30.2922L21.1995 30.1274C21.2835 29.3051 21.4078 28.5065 21.5845 27.9059C21.7432 27.3673 22.0555 26.8759 22.4901 26.481C22.9248 26.0861 23.4664 25.8015 24.0608 25.6559C24.913 25.4499 26.7628 25.3232 28.7053 25.244L29.0028 25.2329L29.3038 25.2234L29.4543 25.2186L29.7535 25.2075C31.419 25.159 33.0852 25.1321 34.7515 25.1267H35.0893V25.1251ZM32.2 30.2114V37.8455L39.4748 34.0301L32.2 30.2114Z" fill="#696969"/>
</g>
</g>
</svg>
